ply
format ascii 1.0
comment Created by Open Asset Import Library - http://assimp.sf.net (v3.1.187496374)
element vertex 24
property float x
property float y
property float z
property float nx
property float ny
property float nz
element face 12
property list uint uint vertex_index
end_header
0 0 0 0 0 -1
1 1 0 0 0 -1
1 0 0 0 0 -1
0 1 0 0 0 -1
0 0 0 -1 0 0
0 1 1 -1 0 0
0 1 0 -1 0 0
0 0 1 -1 0 0
0 1 0 0 1 0
1 1 1 0 1 0
1 1 0 0 1 0
0 1 1 0 1 0
1 0 0 1 0 0
1 1 0 1 0 0
1 1 1 1 0 0
1 0 1 1 0 0
0 0 0 0 -1 0
1 0 0 0 -1 0
1 0 1 0 -1 0
0 0 1 0 -1 0
0 0 1 0 0 1
1 0 1 0 0 1
1 1 1 0 0 1
0 1 1 0 0 1
3 0 1 2
3 0 3 1
3 4 5 6
3 4 7 5
3 8 9 10
3 8 11 9
3 12 13 14
3 12 14 15
3 16 17 18
3 16 18 19
3 20 21 22
3 20 22 23
