ply
format ascii 1.0
comment Created by Open Asset Import Library - http://assimp.sf.net (v3.1.187496374)
element vertex 114
property float x
property float y
property float z
property float nx
property float ny
property float nz
element face 224
property list uint uint vertex_index
end_header
0.382683 0.92388 0 0.442548 0.896745 -8.03525e-17
0.653281 0.707107 0.270598 0.652799 0.707629 0.270398
0.707107 0.707107 0 0.706585 0.707629 1.35742e-16
0.653281 0.707107 -0.270598 0.652799 0.707629 -0.270398
0.353553 0.92388 -0.146447 0.353102 0.924082 -0.14626
0 1 0 -7.08016e-18 1 -4.3366e-17
0.353553 0.92388 0.146447 0.353102 0.924082 0.14626
0.92388 0.382683 0 0.923682 0.38316 -8.62743e-17
0.853553 0.382683 -0.353553 0.853371 0.38316 -0.353478
0.92388 6.12323e-17 0.382683 0.92388 -1.80205e-17 0.382683
1 6.12323e-17 0 1 0 -1.08123e-16
0.92388 6.12323e-17 -0.382683 0.92388 -3.60411e-17 -0.382683
0.853553 0.382683 0.353553 0.853371 0.38316 0.353478
0.653281 0.382683 -0.653281 0.653142 0.38316 -0.653142
0.270598 0.707107 -0.653281 0.270398 0.707629 -0.652799
0.353553 0.382683 -0.853553 0.353478 0.38316 -0.853371
0.5 0.707107 -0.5 0.499631 0.707629 -0.499631
0.382683 6.12323e-17 -0.92388 0.382683 0 -0.92388
0.707107 6.12323e-17 -0.707107 0.707107 1.44164e-17 -0.707107
-1.69714e-16 0.382683 -0.92388 -4.31372e-17 0.38316 -0.923682
-0.270598 0.707107 -0.653281 -0.270398 0.707629 -0.652799
-0.353553 0.382683 -0.853553 -0.353478 0.38316 -0.853371
-1.29893e-16 0.707107 -0.707107 1.42886e-17 0.707629 -0.706585
-0.382683 6.12323e-17 -0.92388 -0.382683 -1.44164e-17 -0.92388
-1.83697e-16 6.12323e-17 -1 -3.67619e-16 7.20821e-18 -1
-0.653281 0.382683 -0.653281 -0.653142 0.38316 -0.653142
-0.653281 0.707107 -0.270598 -0.652799 0.707629 -0.270398
-0.853553 0.382683 -0.353553 -0.853371 0.38316 -0.353478
-0.5 0.707107 -0.5 -0.499631 0.707629 -0.499631
-0.92388 6.12323e-17 -0.382683 -0.92388 -5.40616e-17 -0.382683
-0.707107 6.12323e-17 -0.707107 -0.707107 -8.64985e-17 -0.707107
-0.92388 0.382683 1.13143e-16 -0.923682 0.38316 1.47385e-16
-0.653281 0.707107 0.270598 -0.652799 0.707629 0.270398
-0.853553 0.382683 0.353553 -0.853371 0.38316 0.353478
-0.707107 0.707107 8.65956e-17 -0.706585 0.707629 1.14309e-16
-0.92388 6.12323e-17 0.382683 -0.92388 3.60411e-18 0.382683
-1 6.12323e-17 1.22465e-16 -1 -7.20821e-18 1.44164e-16
-0.653281 0.382683 0.653281 -0.653142 0.38316 0.653142
-0.270598 0.707107 0.653281 -0.270398 0.707629 0.652799
-0.353553 0.382683 0.853553 -0.353478 0.38316 0.853371
-0.5 0.707107 0.5 -0.499631 0.707629 0.499631
-0.382683 6.12323e-17 0.92388 -0.382683 1.80205e-17 0.92388
-0.707107 6.12323e-17 0.707107 -0.707107 1.44164e-17 0.707107
5.65713e-17 0.382683 0.92388 1.07843e-17 0.38316 0.923682
0.270598 0.707107 0.653281 0.270398 0.707629 0.652799
0.353553 0.382683 0.853553 0.353478 0.38316 0.853371
4.32978e-17 0.707107 0.707107 7.14432e-18 0.707629 0.706585
0.382683 6.12323e-17 0.92388 0.382683 3.60411e-17 0.92388
6.12323e-17 6.12323e-17 1 0 7.20821e-18 1
0.653281 0.382683 0.653281 0.653142 0.38316 0.653142
0.5 0.707107 0.5 0.499631 0.707629 0.499631
0.707107 6.12323e-17 0.707107 0.707107 0 0.707107
0.270598 0.92388 0.270598 0.312929 0.896745 0.312929
0.146447 0.92388 0.353553 0.14626 0.924082 0.353102
2.34326e-17 0.92388 0.382683 2.36331e-18 0.896745 0.442548
-0.146447 0.92388 0.353553 -0.14626 0.924082 0.353102
-0.270598 0.92388 0.270598 -0.312929 0.896745 0.312929
-0.353553 0.92388 0.146447 -0.353102 0.924082 0.14626
-0.382683 0.92388 4.68652e-17 -0.442548 0.896745 2.59964e-17
-0.353553 0.92388 -0.146447 -0.353102 0.924082 -0.14626
-0.270598 0.92388 -0.270598 -0.312929 0.896745 -0.312929
-0.146447 0.92388 -0.353553 -0.14626 0.924082 -0.353102
-7.02978e-17 0.92388 -0.382683 -3.7813e-17 0.896745 -0.442548
0.146447 0.92388 -0.353553 0.14626 0.924082 -0.353102
0.270598 0.92388 -0.270598 0.312929 0.896745 -0.312929
0.92388 -0.382683 0 0.923682 -0.38316 -1.40196e-16
0.653281 -0.382683 0.653281 0.653142 -0.38316 0.653142
0.853553 -0.382683 0.353553 0.853371 -0.38316 0.353478
0.853553 -0.382683 -0.353553 0.853371 -0.38316 -0.353478
0.653281 -0.382683 -0.653281 0.653142 -0.38316 -0.653142
0.653281 -0.707107 -0.270598 0.652799 -0.707629 -0.270398
0.653281 -0.707107 0.270598 0.652799 -0.707629 0.270398
0.707107 -0.707107 0 0.706585 -0.707629 -6.78711e-17
0.382683 -0.92388 0 0.442548 -0.896745 2.10335e-16
0.270598 -0.92388 0.270598 0.312929 -0.896745 0.312929
0.353553 -0.92388 0.146447 0.353102 -0.924082 0.14626
0.5 -0.707107 0.5 0.499631 -0.707629 0.499631
0.353553 -0.92388 -0.146447 0.353102 -0.924082 -0.14626
0 -1 0 -8.8502e-18 -1 -6.23939e-17
0.270598 -0.707107 0.653281 0.270398 -0.707629 0.652799
0.146447 -0.92388 0.353553 0.14626 -0.924082 0.353102
0.353553 -0.382683 0.853553 0.353478 -0.38316 0.853371
5.65713e-17 -0.382683 0.92388 7.18953e-18 -0.38316 0.923682
-0.270598 -0.707107 0.653281 -0.270398 -0.707629 0.652799
4.32978e-17 -0.707107 0.707107 1.07165e-17 -0.707629 0.706585
-0.353553 -0.382683 0.853553 -0.353478 -0.38316 0.853371
-0.653281 -0.382683 0.653281 -0.653142 -0.38316 0.653142
-0.653281 -0.707107 0.270598 -0.652799 -0.707629 0.270398
-0.5 -0.707107 0.5 -0.499631 -0.707629 0.499631
-0.853553 -0.382683 0.353553 -0.853371 -0.38316 0.353478
-0.92388 -0.382683 1.13143e-16 -0.923682 -0.38316 1.5817e-16
-0.653281 -0.707107 -0.270598 -0.652799 -0.707629 -0.270398
-0.707107 -0.707107 8.65956e-17 -0.706585 -0.707629 1.14309e-16
-0.853553 -0.382683 -0.353553 -0.853371 -0.38316 -0.353478
-0.653281 -0.382683 -0.653281 -0.653142 -0.38316 -0.653142
-0.270598 -0.707107 -0.653281 -0.270398 -0.707629 -0.652799
-0.5 -0.707107 -0.5 -0.499631 -0.707629 -0.499631
-0.353553 -0.382683 -0.853553 -0.353478 -0.38316 -0.853371
-1.69714e-16 -0.382683 -0.92388 7.18953e-18 -0.38316 -0.923682
0.270598 -0.707107 -0.653281 0.270398 -0.707629 -0.652799
-1.29893e-16 -0.707107 -0.707107 3.57216e-18 -0.707629 -0.706585
0.353553 -0.382683 -0.853553 0.353478 -0.38316 -0.853371
0.5 -0.707107 -0.5 0.499631 -0.707629 -0.499631
0.270598 -0.92388 -0.270598 0.312929 -0.896745 -0.312929
0.146447 -0.92388 -0.353553 0.14626 -0.924082 -0.353102
-7.02978e-17 -0.92388 -0.382683 -3.54497e-17 -0.896745 -0.442548
-0.146447 -0.92388 -0.353553 -0.14626 -0.924082 -0.353102
-0.270598 -0.92388 -0.270598 -0.312929 -0.896745 -0.312929
-0.353553 -0.92388 -0.146447 -0.353102 -0.924082 -0.14626
-0.382683 -0.92388 4.68652e-17 -0.442548 -0.896745 5.43561e-17
-0.353553 -0.92388 0.146447 -0.353102 -0.924082 0.14626
-0.270598 -0.92388 0.270598 -0.312929 -0.896745 0.312929
2.34326e-17 -0.92388 0.382683 2.36331e-17 -0.896745 0.442548
-0.146447 -0.92388 0.353553 -0.14626 -0.924082 0.353102
3 0 1 2
3 0 3 4
3 0 5 6
3 6 1 0
3 4 5 0
3 2 3 0
3 2 7 3
3 1 7 2
3 3 7 8
3 7 9 10
3 7 11 8
3 12 7 1
3 12 9 7
3 10 11 7
3 8 13 3
3 8 11 13
3 14 13 15
3 16 13 14
3 3 13 16
3 13 17 15
3 13 11 18
3 18 17 13
3 15 19 14
3 15 17 19
3 20 19 21
3 22 19 20
3 14 19 22
3 19 23 21
3 19 17 24
3 24 23 19
3 21 25 20
3 21 23 25
3 26 25 27
3 28 25 26
3 20 25 28
3 25 29 27
3 25 23 30
3 30 29 25
3 27 31 26
3 27 29 31
3 32 31 33
3 34 31 32
3 26 31 34
3 31 35 33
3 31 29 36
3 36 35 31
3 33 37 32
3 33 35 37
3 38 37 39
3 40 37 38
3 32 37 40
3 37 41 39
3 37 35 42
3 42 41 37
3 39 43 38
3 39 41 43
3 44 43 45
3 46 43 44
3 38 43 46
3 43 47 45
3 43 41 48
3 48 47 43
3 45 49 44
3 45 47 49
3 1 49 12
3 50 49 1
3 44 49 50
3 49 9 12
3 49 47 51
3 51 9 49
3 52 1 6
3 50 1 52
3 52 44 50
3 6 5 52
3 52 5 53
3 53 44 52
3 54 44 53
3 46 44 54
3 53 5 54
3 54 38 46
3 54 5 55
3 55 38 54
3 56 38 55
3 40 38 56
3 55 5 56
3 56 32 40
3 56 5 57
3 57 32 56
3 58 32 57
3 34 32 58
3 57 5 58
3 58 26 34
3 58 5 59
3 59 26 58
3 60 26 59
3 28 26 60
3 59 5 60
3 60 20 28
3 60 5 61
3 61 20 60
3 62 20 61
3 22 20 62
3 61 5 62
3 62 14 22
3 62 5 63
3 63 14 62
3 64 14 63
3 16 14 64
3 63 5 64
3 64 3 16
3 64 5 4
3 4 3 64
3 9 65 10
3 9 66 67
3 51 66 9
3 67 65 9
3 10 65 11
3 11 65 68
3 11 69 18
3 68 69 11
3 65 70 68
3 68 70 69
3 65 71 72
3 67 71 65
3 72 70 65
3 66 71 67
3 71 73 72
3 71 74 75
3 76 71 66
3 76 74 71
3 75 73 71
3 72 73 70
3 70 73 77
3 73 78 77
3 75 78 73
3 74 78 75
3 79 74 76
3 80 74 79
3 80 78 74
3 66 79 76
3 47 66 51
3 81 66 47
3 81 79 66
3 47 82 81
3 48 82 47
3 82 79 81
3 41 82 48
3 82 83 84
3 85 82 41
3 85 83 82
3 84 79 82
3 41 86 85
3 42 86 41
3 86 83 85
3 35 86 42
3 86 87 88
3 89 86 35
3 89 87 86
3 88 83 86
3 35 90 89
3 36 90 35
3 90 87 89
3 29 90 36
3 90 91 92
3 93 90 29
3 93 91 90
3 92 87 90
3 29 94 93
3 30 94 29
3 94 91 93
3 23 94 30
3 94 95 96
3 97 94 23
3 97 95 94
3 96 91 94
3 23 98 97
3 24 98 23
3 98 95 97
3 17 98 24
3 98 99 100
3 101 98 17
3 101 99 98
3 100 95 98
3 17 69 101
3 18 69 17
3 69 99 101
3 69 70 102
3 102 99 69
3 70 103 102
3 77 103 70
3 102 103 99
3 99 103 104
3 103 78 104
3 77 78 103
3 104 105 99
3 104 78 105
3 95 105 106
3 100 105 95
3 99 105 100
3 105 78 106
3 95 107 96
3 106 107 95
3 106 78 107
3 91 107 108
3 96 107 91
3 107 78 108
3 91 109 92
3 108 109 91
3 108 78 109
3 87 109 110
3 92 109 87
3 109 78 110
3 87 111 88
3 110 111 87
3 110 78 111
3 112 78 80
3 113 78 112
3 111 78 113
3 83 111 113
3 88 111 83
3 113 112 83
3 79 112 80
3 84 112 79
3 83 112 84
